{
  "accessors": [
    {
      "bufferView": 2,
      "componentType": 5126,
      "count": 828,
      "max": [
        0.5300061702728271,
        1.9029121398925781,
        0.23819231986999512
      ],
      "min": [
        -0.530010461807251,
        -0.0008651652024127543,
        -0.34811335802078247
      ],
      "type": "VEC3"
    },
    {
      "bufferView": 2,
      "byteOffset": 9936,
      "componentType": 5126,
      "count": 828,
      "max": [
        0.9994449615478516,
        0.9796572327613831,
        0.9999985694885254
      ],
      "min": [
        -0.9994161128997803,
        -0.9839386940002441,
        -0.9998542070388794
      ],
      "type": "VEC3"
    },
    {
      "bufferView": 1,
      "componentType": 5126,
      "count": 828,
      "max": [
        0.9952269196510315,
        0.9924304485321045
      ],
      "min": [
        0.002328699454665184,
        0.003787398338317871
      ],
      "type": "VEC2"
    },
    {
      "bufferView": 0,
      "componentType": 5125,
      "count": 3420,
      "type": "SCALAR"
    },
    {
      "bufferView": 2,
      "byteOffset": 19872,
      "componentType": 5126,
      "count": 92,
      "max": [
        0.32477110624313354,
        1.8223332166671753,
        -0.08160078525543213
      ],
      "min": [
        -0.3551906645298004,
        0.7019700407981873,
        -0.16890206933021545
      ],
      "type": "VEC3"
    },
    {
      "bufferView": 2,
      "byteOffset": 20976,
      "componentType": 5126,
      "count": 92,
      "max": [
        0.9997625350952148,
        0.972396731376648,
        0.9999502897262573
      ],
      "min": [
        -0.9829702377319336,
        -0.8962815999984741,
        -0.999882698059082
      ],
      "type": "VEC3"
    },
    {
      "bufferView": 1,
      "byteOffset": 6624,
      "componentType": 5126,
      "count": 92,
      "max": [
        0.996373176574707,
        0.9962283968925476
      ],
      "min": [
        0.007069233804941177,
        0.003712892532348633
      ],
      "type": "VEC2"
    },
    {
      "bufferView": 0,
      "byteOffset": 13680,
      "componentType": 5125,
      "count": 162,
      "type": "SCALAR"
    },
    {
      "bufferView": 2,
      "byteOffset": 22080,
      "componentType": 5126,
      "count": 16,
      "max": [
        0.08080688118934631,
        1.662294864654541,
        0.1321077048778534
      ],
      "min": [
        -0.09118611365556717,
        1.4378738403320313,
        0.049351755529642105
      ],
      "type": "VEC3"
    },
    {
      "bufferView": 2,
      "byteOffset": 22272,
      "componentType": 5126,
      "count": 16,
      "max": [
        0.9180466532707214,
        0.4443315267562866,
        0.679537296295166
      ],
      "min": [
        -0.9141029119491577,
        -0.02014263905584812,
        0.39623019099235535
      ],
      "type": "VEC3"
    },
    {
      "bufferView": 1,
      "byteOffset": 7360,
      "componentType": 5126,
      "count": 16,
      "max": [
        0.9923306703567505,
        0.049058377742767334
      ],
      "min": [
        0.5193307399749756,
        0.006297945976257324
      ],
      "type": "VEC2"
    },
    {
      "bufferView": 0,
      "byteOffset": 14328,
      "componentType": 5125,
      "count": 36,
      "type": "SCALAR"
    }
  ],
  "asset": {
    "extras": {
      "author": "CG-Moon (https://sketchfab.com/CG-Moon)",
      "license": "CC-BY-4.0 (http://creativecommons.org/licenses/by/4.0/)",
      "source": "https://sketchfab.com/3d-models/nobleman-rigged-3d-model-eab176a4a5a644eea446114f3bc19403",
      "title": "Nobleman Rigged 3D Model"
    },
    "generator": "Sketchfab-13.12.0",
    "version": "2.0"
  },
  "bufferViews": [
    {
      "buffer": 0,
      "byteLength": 14472,
      "name": "floatBufferViews",
      "target": 34963
    },
    {
      "buffer": 0,
      "byteLength": 7488,
      "byteOffset": 14472,
      "byteStride": 8,
      "name": "floatBufferViews",
      "target": 34962
    },
    {
      "buffer": 0,
      "byteLength": 22464,
      "byteOffset": 21960,
      "byteStride": 12,
      "name": "floatBufferViews",
      "target": 34962
    }
  ],
  "buffers": [
    {
      "byteLength": 44424,
      "uri": "scene.bin"
    }
  ],
  "extensionsUsed": [
    "KHR_materials_unlit"
  ],
  "images": [
    {
      "uri": "textures/48631321_baseColor.png"
    },
    {
      "uri": "textures/48631321.001_baseColor.png"
    }
  ],
  "materials": [
    {
      "extensions": {
        "KHR_materials_unlit": {}
      },
      "name": "48631321",
      "pbrMetallicRoughness": {
        "baseColorTexture": {
          "index": 0
        },
        "metallicFactor": 0.0
      }
    },
    {
      "alphaMode": "BLEND",
      "doubleSided": true,
      "extensions": {
        "KHR_materials_unlit": {}
      },
      "name": "48631321.001",
      "pbrMetallicRoughness": {
        "baseColorTexture": {
          "index": 1
        },
        "metallicFactor": 0.0
      }
    }
  ],
  "meshes": [
    {
      "name": "Object_0",
      "primitives": [
        {
          "attributes": {
            "NORMAL": 1,
            "POSITION": 0,
            "TEXCOORD_0": 2
          },
          "indices": 3,
          "material": 0,
          "mode": 4
        }
      ]
    },
    {
      "name": "Object_1",
      "primitives": [
        {
          "attributes": {
            "NORMAL": 5,
            "POSITION": 4,
            "TEXCOORD_0": 6
          },
          "indices": 7,
          "material": 0,
          "mode": 4
        }
      ]
    },
    {
      "name": "Object_2",
      "primitives": [
        {
          "attributes": {
            "NORMAL": 9,
            "POSITION": 8,
            "TEXCOORD_0": 10
          },
          "indices": 11,
          "material": 1,
          "mode": 4
        }
      ]
    }
  ],
  "nodes": [
    {
      "children": [
        1
      ],
      "matrix": [
        1.0,
        0.0,
        0.0,
        0.0,
        0.0,
        2.220446049250313e-16,
        -1.0,
        0.0,
        0.0,
        1.0,
        2.220446049250313e-16,
        0.0,
        0.0,
        0.0,
        0.0,
        1.0
      ],
      "name": "Sketchfab_model"
    },
    {
      "children": [
        2
      ],
      "name": "root"
    },
    {
      "children": [
        3,
        5,
        7
      ],
      "matrix": [
        1.0,
        0.0,
        0.0,
        0.0,
        0.0,
        2.220446049250313e-16,
        1.0,
        0.0,
        0.0,
        -1.0,
        2.220446049250313e-16,
        0.0,
        0.0,
        0.0,
        0.0,
        1.0
      ],
      "name": "GLTF_SceneRootNode"
    },
    {
      "children": [
        4
      ],
      "name": "Element Client-264813e8.obj_0"
    },
    {
      "mesh": 0,
      "name": "Object_4"
    },
    {
      "children": [
        6
      ],
      "name": "Element Client-264813e8.obj.001_1"
    },
    {
      "mesh": 1,
      "name": "Object_6"
    },
    {
      "children": [
        8
      ],
      "name": "Element Client-264813e8.obj.002_2"
    },
    {
      "mesh": 2,
      "name": "Object_8"
    }
  ],
  "samplers": [
    {
      "magFilter": 9729,
      "minFilter": 9987,
      "wrapS": 10497,
      "wrapT": 10497
    }
  ],
  "scene": 0,
  "scenes": [
    {
      "name": "Sketchfab_Scene",
      "nodes": [
        0
      ]
    }
  ],
  "textures": [
    {
      "sampler": 0,
      "source": 0
    },
    {
      "sampler": 0,
      "source": 1
    }
  ]
}
